<svg class="h-[52px] w-[78px] lg:h-[69px] lg:w-[104px]" viewBox="0 0 116 77" fill="none" xmlns="http://www.w3.org/2000/svg"><defs><linearGradient id="linearGradient1" x1="0%" y1="0%" x2="100%" y2="100%"><stop offset="0%" class="text-primary-gradient" stop-color="currentColor"/><stop offset="100%" class="text-primary" stop-color="currentColor"/></linearGradient></defs><path d="M54.2331 74.5945C51.9116 72.781 50.9576 69.7185 51.8388 66.9074C54.1938 59.3939 55.7284 53.1383 56.5382 47.4321L10.7563 75.3928C8.24231 76.9282 5.03984 76.7443 2.71839 74.9309C0.396953 73.1175 -0.556999 70.0549 0.324079 67.2439C4.06743 55.3015 5.73777 46.5369 5.71953 38.1054C5.70129 29.6766 3.99489 21.1067 0.33068 9.54277C-0.564135 6.71882 0.3963 3.63643 2.73683 1.82058C5.07737 0.0047189 8.3017 -0.159595 10.8147 1.40892L56.7566 30.0841C56.0187 23.9404 54.4125 17.3082 51.8454 9.20635C50.9505 6.38239 51.9109 3.30001 54.2515 1.48415C56.592 -0.331707 59.8164 -0.496021 62.3294 1.0725L112.497 32.385C114.577 33.6831 115.835 35.9659 115.823 38.4174C115.812 40.869 114.53 43.1395 112.438 44.4173L62.2709 75.0564C59.757 76.5917 56.5545 76.4079 54.2331 74.5945Z" fill="url(#linearGradient1)"/></svg>