<svg class="absolute left-1/2 top-1/2 z-10 -translate-x-1/2 -translate-y-1/2 rotate-90 md:hidden" width="57" height="67" viewBox="0 0 96 113" fill="none" xmlns="http://www.w3.org/2000/svg"><defs><linearGradient id="linearGradient" x1="0%" y1="0%" x2="100%" y2="100%"><stop offset="0%" class="text-primary-gradient" stop-color="currentColor"/><stop offset="100%" class="text-primary" stop-color="currentColor"/></linearGradient></defs><path d="M4.03689 110.775C0.589489 108.082 -0.82716 103.534 0.481266 99.3595C6.04025 81.6247 8.52076 68.6091 8.49366 56.0881C8.46658 43.5711 5.93254 30.8445 0.49107 13.6717C-0.837757 9.47804 0.58852 4.90061 4.06428 2.20401C7.54004 -0.492594 12.3283 -0.736605 16.0602 1.59269L90.5602 48.0927C93.5153 49.9371 95.3544 53.1202 95.4922 56.5807L95.4779 57.6904C95.2548 61.0832 93.3977 64.175 90.4734 65.961L15.9734 111.461C12.2401 113.741 7.4843 113.468 4.03689 110.775Z" fill="url(#linearGradient)"/></svg>